<?xml version="1.0" encoding="UTF-8" standalone="no"?>
<svg width="83px" height="83px" viewBox="0 0 83 83" version="1.1" xmlns="http://www.w3.org/2000/svg" xmlns:xlink="http://www.w3.org/1999/xlink">
    <!-- Generator: Sketch 40.3 (33839) - http://www.bohemiancoding.com/sketch -->
    <title>icon</title>
    <desc>Created with Sketch.</desc>
    <defs>
        <linearGradient x1="18.2879192%" y1="0%" x2="91.4586509%" y2="100%" id="linearGradient-1">
            <stop stop-color="#2F1645" offset="0%"></stop>
            <stop stop-color="#513764" offset="25.361152%"></stop>
            <stop stop-color="#5B3461" offset="62.0315599%"></stop>
            <stop stop-color="#864059" offset="100%"></stop>
        </linearGradient>
    </defs>
    <g id="Page-1" stroke="none" stroke-width="1" fill="none" fill-rule="evenodd">
        <g id="icon">
            <rect id="backgroundrect" x="0" y="0" width="83" height="82"></rect>
            <circle id="Oval-1" fill="url(#linearGradient-1)" transform="translate(41.352559, 41.279720) scale(-1, 1) translate(-41.352559, -41.279720) " cx="41.352559" cy="41.27972" r="41"></circle>
            <rect id="Rectangle" fill="#FBE9FF" transform="translate(41.116025, 41.253521) rotate(-330.000000) translate(-41.116025, -41.253521) " x="40.1160254" y="20.7535208" width="2" height="41" rx="1"></rect>
            <path d="M32.890625,22.7851562 C34.0416724,22.7851562 35.0276652,23.1850546 35.8486328,23.9848633 C36.6696005,24.784672 37.2429997,25.9272387 37.5688477,27.4125977 C37.8946956,28.8979566 38.0576172,30.3557871 38.0576172,31.7861328 C38.0576172,34.3759895 37.5857795,36.4389572 36.6420898,37.9750977 C35.6984002,39.5112381 34.4479245,40.2792969 32.890625,40.2792969 C31.9088493,40.2792969 31.0053752,39.9174841 30.1801758,39.1938477 C29.3549763,38.4702112 28.7583026,37.382657 28.3901367,35.9311523 C28.0219708,34.4796477 27.8378906,32.9498778 27.8378906,31.3417969 C27.8378906,29.4967356 28.0854467,27.8971422 28.5805664,26.5429688 C29.0756861,25.1887953 29.7146771,24.2239612 30.4975586,23.6484375 C31.2804401,23.0729138 32.0781209,22.7851562 32.890625,22.7851562 L32.890625,22.7851562 Z M33.0556641,24.2324219 C31.8792259,24.2324219 30.9905629,24.8841081 30.3896484,26.1875 C29.788734,27.4908919 29.4882812,29.2893766 29.4882812,31.5830078 C29.4882812,33.8597119 29.7908498,35.6328062 30.3959961,36.9023438 C31.0011423,38.1718813 31.8369087,38.8066406 32.9033203,38.8066406 C33.580407,38.8066406 34.2088187,38.5167672 34.7885742,37.9370117 C35.3683297,37.3572562 35.785155,36.4072332 36.0390625,35.0869141 C36.29297,33.766595 36.4199219,32.5013081 36.4199219,31.2910156 C36.4199219,29.0058479 36.0877312,27.2581441 35.4233398,26.0478516 C34.7589485,24.8375591 33.9697311,24.2324219 33.0556641,24.2324219 L33.0556641,24.2324219 Z" id="0" fill="#FBE9FF"></path>
            <path d="M49.890625,40.7851562 C51.0416724,40.7851562 52.0276652,41.1850546 52.8486328,41.9848633 C53.6696005,42.784672 54.2429997,43.9272387 54.5688477,45.4125977 C54.8946956,46.8979566 55.0576172,48.3557871 55.0576172,49.7861328 C55.0576172,52.3759895 54.5857795,54.4389572 53.6420898,55.9750977 C52.6984002,57.5112381 51.4479245,58.2792969 49.890625,58.2792969 C48.9088493,58.2792969 48.0053752,57.9174841 47.1801758,57.1938477 C46.3549763,56.4702112 45.7583026,55.382657 45.3901367,53.9311523 C45.0219708,52.4796477 44.8378906,50.9498778 44.8378906,49.3417969 C44.8378906,47.4967356 45.0854467,45.8971422 45.5805664,44.5429688 C46.0756861,43.1887953 46.7146771,42.2239612 47.4975586,41.6484375 C48.2804401,41.0729138 49.0781209,40.7851562 49.890625,40.7851562 L49.890625,40.7851562 Z M50.0556641,42.2324219 C48.8792259,42.2324219 47.9905629,42.8841081 47.3896484,44.1875 C46.788734,45.4908919 46.4882812,47.2893766 46.4882812,49.5830078 C46.4882812,51.8597119 46.7908498,53.6328062 47.3959961,54.9023438 C48.0011423,56.1718813 48.8369087,56.8066406 49.9033203,56.8066406 C50.580407,56.8066406 51.2088187,56.5167672 51.7885742,55.9370117 C52.3683297,55.3572562 52.785155,54.4072332 53.0390625,53.0869141 C53.29297,51.766595 53.4199219,50.5013081 53.4199219,49.2910156 C53.4199219,47.0058479 53.0877312,45.2581441 52.4233398,44.0478516 C51.7589485,42.8375591 50.9697311,42.2324219 50.0556641,42.2324219 L50.0556641,42.2324219 Z" id="0-copy" fill="#FBE9FF"></path>
        </g>
    </g>
</svg>