<?xml version="1.0" encoding="UTF-8" standalone="no"?>
<svg width="72px" height="99px" viewBox="0 0 72 99" version="1.1" xmlns="http://www.w3.org/2000/svg" xmlns:xlink="http://www.w3.org/1999/xlink">
    <!-- Generator: Sketch 40.3 (33839) - http://www.bohemiancoding.com/sketch -->
    <title>percent</title>
    <desc>Created with Sketch.</desc>
    <defs></defs>
    <g id="Page-1" stroke="none" stroke-width="1" fill="none" fill-rule="evenodd">
        <g id="percent" fill="#000000">
            <rect id="Rectangle" transform="translate(35.066782, 50.176029) rotate(-330.000000) translate(-35.066782, -50.176029) " x="32.4296718" y="-4.48852184" width="5.27422003" height="109.329102" rx="2.63711002"></rect>
            <path d="M13.375496,0.92896309 C16.4109347,0.92896309 19.0111061,1.99531741 21.1760881,4.12805803 C23.3410701,6.26079866 24.8531869,9.30752528 25.7124839,13.2683293 C26.5717808,17.2291333 27.0014229,21.1165308 27.0014229,24.9306384 C27.0014229,31.8366556 25.7571349,37.3376898 23.2685215,41.4339059 C20.7799082,45.530122 17.482266,47.5781994 13.375496,47.5781994 C10.7864454,47.5781994 8.40388495,46.6134026 6.22774325,44.6837801 C4.05160154,42.7541577 2.4781073,39.8541253 1.50721331,35.983596 C0.536319315,32.1130667 0.0508796011,28.0338383 0.0508796011,23.7457884 C0.0508796011,18.8258153 0.70371232,14.560398 2.00939734,10.9494086 C3.31508237,7.3384192 5.00017195,4.76562784 7.06471664,3.23095733 C9.12926134,1.69628683 11.2328334,0.92896309 13.375496,0.92896309 L13.375496,0.92896309 Z M13.8107222,4.78818873 C10.7083253,4.78818873 8.36482324,6.52595132 6.78014569,10.0015286 C5.19546814,13.477106 4.40314125,18.2728793 4.40314125,24.3889927 C4.40314125,30.4599686 5.20104791,35.188037 6.79688516,38.5733395 C8.39272241,41.9586421 10.5967303,43.651268 13.408975,43.651268 C15.1945271,43.651268 16.8517179,42.8783022 18.3805969,41.3323473 C19.909476,39.7863925 21.00869,37.2530957 21.6782721,33.7323811 C22.3478542,30.2116664 22.6826402,26.8376988 22.6826402,23.610377 C22.6826402,17.5168323 21.8066168,12.856469 20.0545437,9.62914722 C18.3024707,6.40182542 16.2212176,4.78818873 13.8107222,4.78818873 L13.8107222,4.78818873 Z" id="0"></path>
            <path d="M58.2063663,48.9271055 C61.241805,48.9271055 63.8419763,49.9934598 66.0069583,52.1262004 C68.1719403,54.2589411 69.6840572,57.3056677 70.5433541,61.2664717 C71.4026511,65.2272757 71.8322932,69.1146732 71.8322932,72.9287808 C71.8322932,79.834798 70.5880052,85.3358322 68.0993918,89.4320483 C65.6107785,93.5282645 62.3131363,95.5763418 58.2063663,95.5763418 C55.6173157,95.5763418 53.2347552,94.611545 51.0586135,92.6819226 C48.8824718,90.7523001 47.3089776,87.8522677 46.3380836,83.9817384 C45.3671896,80.1112092 44.8817499,76.0319807 44.8817499,71.7439308 C44.8817499,66.8239577 45.5345826,62.5585405 46.8402676,58.947551 C48.1459526,55.3365616 49.8310422,52.7637703 51.8955869,51.2290997 C53.9601316,49.6944292 56.0637037,48.9271055 58.2063663,48.9271055 L58.2063663,48.9271055 Z M58.6415925,52.7863311 C55.5391956,52.7863311 53.1956935,54.5240937 51.611016,57.9996711 C50.0263384,61.4752484 49.2340115,66.2710217 49.2340115,72.3871351 C49.2340115,78.458111 50.0319182,83.1861794 51.6277554,86.571482 C53.2235927,89.9567845 55.4276006,91.6494104 58.2398452,91.6494104 C60.0253974,91.6494104 61.6825882,90.8764446 63.2114672,89.3304898 C64.7403463,87.7845349 65.8395603,85.2512382 66.5091424,81.7305235 C67.1787244,78.2098088 67.5135105,74.8358412 67.5135105,71.6085194 C67.5135105,65.5149747 66.6374871,60.8546114 64.885414,57.6272896 C63.1333409,54.3999678 61.0520879,52.7863311 58.6415925,52.7863311 L58.6415925,52.7863311 Z" id="0-copy"></path>
        </g>
    </g>
</svg>